<svg xmlns="http://www.w3.org/2000/svg" width="1052" height="823" viewBox="0 0 1052 823">
  <defs>
    <filter id="quiz_top-a" width="118%" height="122.5%" x="-9%" y="-11.2%" filterUnits="objectBoundingBox">
      <feOffset in="SourceAlpha" result="shadowOffsetOuter1"/>
      <feGaussianBlur in="shadowOffsetOuter1" result="shadowBlurOuter1" stdDeviation="12"/>
      <feColorMatrix in="shadowBlurOuter1" result="shadowMatrixOuter1" values="0 0 0 0 0   0 0 0 0 0   0 0 0 0 0  0 0 0 0.1 0"/>
      <feMerge>
        <feMergeNode in="shadowMatrixOuter1"/>
        <feMergeNode in="SourceGraphic"/>
      </feMerge>
    </filter>
  </defs>
  <g fill="none" fill-rule="evenodd" transform="translate(34 34)">
    <g fill-rule="nonzero" transform="translate(579.894 140.655)">
      <path fill="#F2F2F2" d="M396.975603,319 C396.975603,495.17883 316.983783,634.16327 218.475603,638 C90.013073,643.00342 -77.881147,514.91424 39.975603,319 C130.793413,168.03277 119.892773,0 218.475603,0 C317.058433,0 396.975603,142.82116 396.975603,319 Z"/>
      <ellipse cx="167.976" cy="631" fill="#464646" rx="159" ry="17"/>
      <path fill="#496b34" d="M304.467483 419.87998C305.091423 426.19712 301.553843 428.77376 296.921263 429.23131 292.288683 429.68886 288.315403 427.85409 287.691453 421.53694 287.067503 415.21979 294.661773 406.35494 294.661773 406.35494 294.661773 406.35494 303.843533 413.56284 304.467483 419.87998zM239.377013 401.75225C236.005303 407.13065 231.630653 407.00415 227.686503 404.53157 223.742353 402.05899 221.722243 398.17657 225.093953 392.79822 228.465663 387.41987 239.896543 385.05467 239.896543 385.05467 239.896543 385.05467 242.748723 396.37385 239.377013 401.75225z"/>
      <path fill="#FFB9B9" d="M235.719143,547.11284 C235.719143,547.11284 243.248673,579.87526 254.977253,586.9363 C266.705833,593.99734 226.350253,607.38724 226.350253,607.38724 C226.350253,607.38724 208.786463,618.27577 204.224253,622.21302 C199.662043,626.15027 180.110403,634.57375 183.333163,628.31753 C186.555923,622.06131 192.217573,610.16439 201.157803,600.28025 C210.098033,590.39611 221.851713,572.7017 211.612963,558.92044 C201.374213,545.13918 235.719143,547.11284 235.719143,547.11284 Z"/>
      <path fill="#496b34" d="M194.947033,148.54035 L191.000503,147.13087 C191.000503,147.13087 180.852283,145.72139 171.549743,157.56099 C162.247203,169.40059 140.964113,205.34222 140.964113,205.34222 L133.071053,223.9473 L160.978673,224.79299 L181.979863,178.56218 L194.947033,148.54035 Z"/>
      <path fill="#000" d="M194.947033,148.54035 L191.000503,147.13087 C191.000503,147.13087 180.852283,145.72139 171.549743,157.56099 C162.247203,169.40059 140.964113,205.34222 140.964113,205.34222 L133.071053,223.9473 L160.978673,224.79299 L181.979863,178.56218 L194.947033,148.54035 Z" opacity=".1"/>
      <path fill="#000" d="M190.718603,434.80488 C190.718603,434.80488 206.645673,438.32857 203.967673,450.59101 C201.289673,462.85345 220.599483,478.78052 222.431803,481.45853 C224.264123,484.13654 226.942123,485.26411 225.250803,489.35159 C223.559483,493.43907 264.575183,551.08659 256.400223,556.30169 C248.225263,561.51679 181.979903,581.95415 176.060103,577.86669 C170.140303,573.77923 165.348103,440.01996 165.348103,440.01996 L190.718603,434.80488 Z"/>
      <path fill="#000" d="M190.718603,434.80488 C190.718603,434.80488 206.645673,438.32857 203.967673,450.59101 C201.289673,462.85345 220.599483,478.78052 222.431803,481.45853 C224.264123,484.13654 226.942123,485.26411 225.250803,489.35159 C223.559483,493.43907 264.575183,551.08659 256.400223,556.30169 C248.225263,561.51679 181.979903,581.95415 176.060103,577.86669 C170.140303,573.77923 165.348103,440.01996 165.348103,440.01996 L190.718603,434.80488 Z" opacity=".1"/>
      <path fill="#FFB9B9" d="M154.495083,580.26278 C154.495083,580.26278 144.628753,612.39883 151.253283,624.37937 C157.877813,636.35991 116.235453,627.77047 116.235453,627.77047 C116.235453,627.77047 95.580383,628.41455 89.660583,629.54213 C83.740783,630.66971 62.597263,628.18495 68.517063,624.37937 C74.436863,620.57379 85.289823,613.10356 97.975063,609.01608 C110.660303,604.9286 129.688273,595.48508 127.715003,578.43046 C125.741733,561.37584 154.495083,580.26278 154.495083,580.26278 Z"/>
      <path fill="#000" d="M136.030953,259.04325 C141.491454,255.14283 148.068142,253.115427 154.776953,253.2644 C165.629953,253.68724 201.148713,262.14409 200.162073,263.83546 C199.188521,265.323868 198.104896,266.737295 196.920283,268.06389 C196.920283,268.06389 199.175443,278.35307 198.188813,279.3397 C197.202183,280.32633 217.498633,303.5827 205.659033,353.47812 C193.819433,403.37354 195.087963,437.90572 195.087963,437.90572 C195.087963,437.90572 199.880183,584.20931 186.208263,587.16921 C172.536343,590.12911 118.694373,588.15584 116.157323,582.37699 C113.620273,576.59814 123.909433,397.17187 123.909433,397.17187 C123.909433,397.17187 125.037023,306.96542 127.715023,295.97151 C130.393023,284.9776 136.030953,259.04325 136.030953,259.04325 Z"/>
      <circle cx="198.118" cy="97.729" r="33.968" fill="#FFB9B9"/>
      <path fill="#FFB9B9" d="M192.973773,120.20988 C192.973773,120.20988 213.974963,140.78823 188.040603,156.71531 C169.779303,167.93013 232.157193,147.97656 232.157193,147.97656 C232.157193,147.97656 219.190023,114.85388 221.163283,107.24271 C223.136543,99.63154 192.973773,120.20988 192.973773,120.20988 Z"/>
      <path fill="#496b34" d="M198.188833 152.34593C198.188833 152.34593 227.364983 138.95593 232.157193 143.74813 236.949403 148.54033 257.668713 168.27301 235.117093 203.22801 212.565473 238.18301 208.196093 264.39926 204.390523 267.35915 200.584953 270.31904 198.188833 263.55357 198.188833 263.55357 198.188833 263.55357 187.194923 253.54629 180.006593 253.54629 172.818263 253.54629 142.091693 256.92903 142.091693 256.92903L150.689493 222.81972C150.689493 222.81972 146.461073 195.89872 160.837723 182.50872 175.214373 169.11872 191.000503 147.13088 191.000503 147.13088L199.141603 145.64371 193.765903 152.48956C193.765903 152.48956 192.973773 154.60109 198.188833 152.34593zM275.142413 381.81996C216.237753 360.30645 208.459883 317.77684 224.236463 274.58009 240.013043 231.38334 273.369793 203.87717 332.274463 225.39068 391.179133 246.90419 437.549123 352.48742 437.549123 352.48742 437.549123 352.48742 334.047073 403.33348 275.142413 381.81996z"/>
      <polygon fill="#3F3D56" points="234.288 275.021 283.293 293.827 332.106 349.439 290.981 296.777 313.016 305.233 348.749 344.324 318.847 307.471 318.847 307.471 358.477 322.679 384.62 360.112 364.709 325.07 437.664 352.174 341.818 314.286 345.734 315.953 393.158 304.923 338.217 312.753 294.544 294.161 295.751 294.523 346.575 280.402 291.608 292.911 286.146 290.586 286.081 290.503 285.615 290.36 174.812 243.19 171.926 251.09 229.928 273.348 263.812 318.228"/>
      <path fill="#FFB9B9" d="M131.097783,226.76625 C131.097783,226.76625 118.553453,243.67996 126.869353,250.0226 C135.185253,256.36524 152.662763,245.51228 152.662763,245.51228 C152.662763,245.51228 192.973763,273.56085 192.409983,257.06998 C191.846203,240.57911 162.951933,229.16236 162.951933,229.16236 L143.501173,229.72615 L146.461073,220.00077 L138.286073,219.15508 L131.097783,226.76625 Z"/>
      <path fill="#000" d="M131.097783,226.76625 C131.097783,226.76625 118.553453,243.67996 126.869353,250.0226 C135.185253,256.36524 152.662763,245.51228 152.662763,245.51228 C152.662763,245.51228 192.973763,273.56085 192.409983,257.06998 C191.846203,240.57911 162.951933,229.16236 162.951933,229.16236 L143.501173,229.72615 L146.461073,220.00077 L138.286073,219.15508 L131.097783,226.76625 Z" opacity=".1"/>
      <path fill="#FFB9B9" d="M215.243493,194.20736 C215.243493,194.20736 136.030953,255.23766 130.956833,233.81363 C127.659133,219.89 130.195703,185.60598 132.375953,163.30734 C133.934382,147.071874 141.184968,131.91083 152.845013,120.50634 C157.597363,115.87649 162.005573,112.97125 164.220463,115.1358 C170.422163,121.19655 149.702863,145.43953 149.702863,145.43953 C149.702863,145.43953 146.320123,194.63023 153.085603,200.26814 C153.085603,200.26814 177.596053,176.6009 182.677383,176.94729 C187.758713,177.29368 215.243493,194.20736 215.243493,194.20736 Z"/>
      <path fill="#000" d="M267.712213,129.49166 C261.223213,119.72378 255.865573,104.01313 250.084333,90.17658 C248.210683,85.69228 246.498933,81.14941 244.822863,76.58758 C241.444713,67.39311 226.737413,55.52493 207.475863,55.52493 C185.460493,55.52493 167.613553,66.60364 167.613553,75.899 C167.613553,83.58415 179.817553,90.06151 196.485823,92.07668 C190.629753,105.1479 187.101823,119.65438 187.101823,129.49168 C187.101823,151.75168 205.147073,142.3362 227.407043,142.3362 C249.667013,142.3362 280.029683,148.03314 267.712213,129.49166 Z"/>
      <path fill="#496b34" d="M232.157193,156.15152 C232.157193,156.15152 246.251953,192.09315 214.538753,200.26811 C214.538753,200.26811 208.337053,191.67031 198.188833,190.26083 C188.040613,188.85135 179.019963,178.28029 179.019963,178.28029 C179.019963,178.28029 199.739253,149.10414 215.948223,148.54035 C232.157193,147.97656 232.157193,156.15152 232.157193,156.15152 Z"/>
    </g>
    <g filter="url(#quiz_top-a)">
      <rect width="509.5" height="407.5" x=".75" y=".75" fill="#FFF" stroke="#000" stroke-opacity=".051" stroke-width="1.5" rx="12"/>
      <rect width="434" height="62" x="39" y="319" fill="#00CC6F" fill-opacity=".09" rx="9"/>
      <rect width="434" height="27" x="38.53" y="31" fill="#000" fill-opacity=".15" rx="13.5"/>
      <rect width="389" height="16" x="84" y="139" fill="#000" fill-opacity=".15" rx="8"/>
      <rect width="434" height="37" x="39" y="174" fill="#00CC6F" rx="6"/>
      <circle cx="56" cy="193" r="9" fill="#FFF" stroke="#2B87FF" stroke-width="2"/>
      <circle cx="56" cy="193" r="6" fill="#2B87FF"/>
      <circle cx="56" cy="147" r="9.5" stroke="#979797" stroke-opacity=".388"/>
      <rect width="389" height="16" x="84" y="100" fill="#000" fill-opacity=".15" rx="8"/>
      <circle cx="56" cy="108" r="9.5" stroke="#979797" stroke-opacity=".388"/>
      <rect width="389" height="16" x="84" y="232" fill="#000" fill-opacity=".15" rx="8"/>
      <circle cx="56" cy="240" r="9.5" stroke="#979797" stroke-opacity=".388"/>
      <rect width="389" height="16" x="84" y="269" fill="#000" fill-opacity=".15" rx="8"/>
      <circle cx="56" cy="277" r="9.5" stroke="#979797" stroke-opacity=".388"/>
    </g>
  </g>
</svg>
